<?xml version="1.0" encoding="UTF-8" standalone="no"?>
<svg
   width="358"
   height="110.00065274251037"
   viewBox="-18 -10 358 110.00065274251037"
   class="css-1j8o68f"
   version="1.1"
   id="svg12"
   sodipodi:docname="logo-artware.svg"
   inkscape:version="1.1.2 (0a00cf5339, 2022-02-04)"
   xmlns:inkscape="http://www.inkscape.org/namespaces/inkscape"
   xmlns:sodipodi="http://sodipodi.sourceforge.net/DTD/sodipodi-0.dtd"
   xmlns="http://www.w3.org/2000/svg"
   xmlns:svg="http://www.w3.org/2000/svg">
  <sodipodi:namedview
     id="namedview14"
     pagecolor="#ffffff"
     bordercolor="#666666"
     borderopacity="1.0"
     inkscape:pageshadow="2"
     inkscape:pageopacity="0.0"
     inkscape:pagecheckerboard="0"
     showgrid="false"
     inkscape:zoom="3.7234637"
     inkscape:cx="178.86572"
     inkscape:cy="55.056264"
     inkscape:window-width="2560"
     inkscape:window-height="1372"
     inkscape:window-x="0"
     inkscape:window-y="0"
     inkscape:window-maximized="1"
     inkscape:current-layer="svg12" />
  <defs
     id="SvgjsDefs22582">
    <linearGradient
       id="SvgjsLinearGradient22587">
      <stop
         id="SvgjsStop22588"
         stop-color="#ef4136"
         offset="0" />
      <stop
         id="SvgjsStop22589"
         stop-color="#fbb040"
         offset="1" />
    </linearGradient>
  </defs>
  <g
     id="SvgjsG22583"
     featurekey="PG4fjM-0"
     transform="matrix(1.111120343208313,0,0,1.111120343208313,-23.555794564808092,-15.551257686466919)"
     fill="url(#SvgjsLinearGradient22587)">
    <path
       d="m10 79.48c4.881 6.329 14.422-12.996 21.812-9.954 4.399 1.811.31 12.942 5.05 13.349 6.082.522 3.218-16.232 9.306-15.775 9.971.748 1.366 29.529 11.219 27.823 10.01-1.732-7.912-26.03 1.233-30.443 6.828-3.296 12.174 17.789 18.368 13.417 5.54-3.911-10.04-14.203-5.806-19.5 4.883-6.109 20.3 8.763 23.405 1.584 4.04-9.343-22.946-10.629-22.36-20.789.461-8.02 16.798-6.676 19.408-14.271 1.59-4.628.579-12.36-3.983-14.13-9.633-3.741-16.828 20.371-26.345 16.342-6.949-2.942 2.697-21.452-4.82-22.12-7.559-.671-1.426 18.849-8.691 21.04-4.351 1.312-7.331-9.828-11.303-7.622-3.472 1.928 3.743 9.709.435 11.907-7.382 4.905-18.835-18.305-24.12-11.19-5.518 7.427 20.719 11.762 18.455 20.733-2.278 9.03-27.12.284-26.24 9.551.828 8.761 22.939-4 26.06 4.225 3.941 10.386-27.866 17.02-21.08 25.812"
       id="path6" />
  </g>
  <g
     id="SvgjsG22584"
     featurekey="jxYttZ-0"
     transform="matrix(1.4051767587661743,0,0,1.4051767587661743,119.44344385149651,30.379293680353555)"
     fill="#e65e1a">
    <path
       d="M5.54 4.08 c0.02 -0.04 0.06 -0.06 0.1 -0.06 l0.24 0 c0.04 -0.02 0.08 0.02 0.1 0.06 l5.32 15.8 c0.02 0.06 -0.04 0.12 -0.1 0.12 l-1.24 0 c-0.04 0 -0.08 -0.02 -0.1 -0.06 l-1.1 -3.36 c0 -0.02 -0.04 -0.06 -0.08 -0.06 l-5.66 0 c-0.04 0 -0.08 0.04 -0.08 0.06 l-1.12 3.36 c-0.02 0.04 -0.04 0.06 -0.08 0.06 l-1.24 0 c-0.06 0 -0.12 -0.06 -0.1 -0.12 z M8.32 15.280000000000001 c0.06 0 0.1 -0.06 0.08 -0.12 l-2.58 -7.4 c-0.02 -0.06 -0.1 -0.06 -0.12 0 l-2.4 7.4 c-0.02 0.06 0.02 0.12 0.08 0.12 l4.94 0 z M14.860000000000001 19.88 c0 0.06 -0.06 0.12 -0.14 0.12 l-1.1 0 c-0.06 0 -0.12 -0.06 -0.12 -0.12 l0 -8.74 c0 -1.12 0.82 -1.94 1.94 -1.94 l4.54 0 c0.06 0 0.12 0.06 0.12 0.12 l0 1.02 c0 0.06 -0.06 0.12 -0.12 0.12 l-4.66 0 c-0.26 0 -0.46 0.2 -0.46 0.46 l0 8.96 z M28.2 9.2 c0.08 0 0.14 0.06 0.14 0.14 l0 0.92 c0 0.08 -0.06 0.14 -0.14 0.14 l-2.66 0 c-0.08 0 -0.12 0.06 -0.12 0.12 l0 9.36 c0 0.06 -0.06 0.12 -0.14 0.12 l-1 0 c-0.08 0 -0.14 -0.06 -0.14 -0.12 l0 -9.36 c0 -0.06 -0.04 -0.12 -0.12 -0.12 l-2.66 0 c-0.08 0 -0.14 -0.06 -0.14 -0.14 l0 -0.92 c0 -0.08 0.06 -0.14 0.14 -0.14 l2.66 0 c0.08 0 0.12 -0.04 0.12 -0.12 l0 -3.96 c0 -0.06 0.06 -0.12 0.14 -0.12 l1 0 c0.08 0 0.14 0.06 0.14 0.12 l0 3.96 c0 0.08 0.04 0.12 0.12 0.12 l2.66 0 z M40.28 15.66 c0.02 0.06 0.1 0.06 0.12 0 l2.52 -11.56 c0.02 -0.06 0.06 -0.1 0.12 -0.1 l1.04 0 c0.08 0 0.14 0.08 0.12 0.16 l-3.46 15.74 c-0.02 0.06 -0.06 0.1 -0.12 0.1 l-0.34 0 c-0.06 0 -0.1 -0.04 -0.12 -0.08 l-3.56 -12.48 c-0.02 -0.06 -0.1 -0.06 -0.12 0 l-3.54 12.48 c-0.02 0.04 -0.06 0.08 -0.12 0.08 l-0.34 0 c-0.06 0 -0.1 -0.04 -0.12 -0.1 l-3.5 -15.74 c-0.02 -0.08 0.04 -0.16 0.12 -0.16 l1.04 0 c0.06 0 0.12 0.04 0.14 0.1 l2.52 11.56 c0.02 0.06 0.12 0.06 0.14 0 c0.44 -1.32 3.12 -10.68 3.4 -11.58 c0.02 -0.04 0.06 -0.08 0.12 -0.08 l0.38 0 c0.04 0 0.1 0.04 0.12 0.08 c0.28 0.9 3 10.26 3.44 11.58 z M50.86 9.2 c1.12 0 1.94 0.82 1.94 1.94 l0 8.74 c0 0.06 -0.06 0.12 -0.14 0.12 l-6.12 0 c-1.12 0 -1.94 -0.82 -1.94 -1.94 l0 -2.52 c0 -1.12 0.82 -1.94 1.94 -1.94 l4.78 0 c0.06 0 0.12 -0.04 0.12 -0.12 l0 -2.54 c0 -0.32 -0.2 -0.5 -0.46 -0.5 l-4.2 0 c-0.26 0 -0.46 0.2 -0.46 0.46 l0 1.1 c0 0.06 -0.06 0.12 -0.14 0.12 l-1.1 0 c-0.06 0 -0.12 -0.06 -0.12 -0.12 l0 -0.86 c0 -1.12 0.82 -1.94 1.94 -1.94 l3.96 0 z M51.32 18.76 c0.06 0 0.12 -0.06 0.12 -0.14 l0 -3.66 c0 -0.08 -0.06 -0.12 -0.12 -0.12 l-4.88 0 c-0.26 0 -0.48 0.2 -0.48 0.46 l0 2.98 c0 0.26 0.22 0.48 0.48 0.48 l4.88 0 z M56.76 19.88 c0 0.06 -0.06 0.12 -0.14 0.12 l-1.1 0 c-0.06 0 -0.12 -0.06 -0.12 -0.12 l0 -8.74 c0 -1.12 0.82 -1.94 1.94 -1.94 l4.54 0 c0.06 0 0.12 0.06 0.12 0.12 l0 1.02 c0 0.06 -0.06 0.12 -0.12 0.12 l-4.66 0 c-0.26 0 -0.46 0.2 -0.46 0.46 l0 8.96 z M71.8 13.86 c0 1.12 -0.82 1.94 -1.94 1.94 l-4.78 0 c-0.06 0 -0.12 0.06 -0.12 0.14 l0 2.3 c0 0.26 0.22 0.48 0.48 0.48 l5.84 0 c0.08 0 0.14 0.06 0.14 0.12 l0 1.04 c0 0.06 -0.06 0.12 -0.14 0.12 l-5.74 0 c-1.12 0 -1.94 -0.82 -1.94 -1.94 l0 -6.92 c0 -1.12 0.82 -1.94 1.94 -1.94 l4.32 0 c1.12 0 1.94 0.82 1.94 1.94 l0 2.72 z M64.96 10.92 l0 3.52 c0 0.06 0.06 0.12 0.12 0.12 l4.88 0 c0.26 0 0.48 -0.2 0.48 -0.46 l0 -3.18 c0 -0.26 -0.22 -0.48 -0.48 -0.48 l-4.52 0 c-0.26 0 -0.48 0.22 -0.48 0.48 z M86.10000000000001 4 c1.12 0 1.94 0.82 1.94 1.94 l0 2.36 c0 0.08 -0.06 0.14 -0.12 0.14 l-1.12 0 c-0.08 0 -0.14 -0.06 -0.14 -0.14 l0 -2.64 c0 -0.18 -0.14 -0.34 -0.32 -0.34 l-5.04 0 c-0.18 0 -0.32 0.16 -0.32 0.34 l0 3.16 c0 0.12 0.06 0.22 0.16 0.28 l6.04 3.36 c0.64 0.36 0.86 0.9 0.86 1.66 l0 3.94 c0 1.12 -0.82 1.94 -1.94 1.94 l-4.56 0 c-1.12 0 -1.94 -0.82 -1.94 -1.94 l0 -3.18 c0 -0.06 0.06 -0.12 0.12 -0.12 l1.12 0 c0.08 0 0.14 0.06 0.14 0.12 l0 3.46 c0 0.18 0.14 0.34 0.32 0.34 l5.04 0 c0.08 0 0.16 -0.04 0.22 -0.1 s0.1 -0.14 0.1 -0.24 l-0.02 -4.36 c0 -0.12 -0.06 -0.22 -0.16 -0.28 l-6.02 -3.36 c-0.68 -0.38 -0.86 -0.9 -0.86 -1.68 l0 -2.72 c0 -1.12 0.82 -1.94 1.94 -1.94 l4.56 0 z M97.88 9.34 c0 -0.08 0.06 -0.14 0.12 -0.14 l1.16 0 c0.08 0 0.14 0.06 0.14 0.14 l0 13.06 c0 1.22 -0.68 1.9 -1.9 1.9 l-6.04 0 c-0.08 0 -0.14 -0.04 -0.14 -0.12 l0 -1 c0 -0.08 0.06 -0.14 0.14 -0.14 l6.04 0 c0.26 0 0.48 -0.2 0.48 -0.46 l0 -2.46 c0 -0.06 -0.06 -0.12 -0.14 -0.12 l-5 0 c-1.22 0 -1.9 -0.68 -1.9 -1.9 l0 -8.76 c0 -0.08 0.04 -0.14 0.12 -0.14 l1.16 0 c0.08 0 0.12 0.06 0.12 0.14 l0 8.92 c0 0.26 0.22 0.48 0.48 0.48 l5.02 0 c0.08 0 0.14 -0.06 0.14 -0.14 l0 -9.26 z M108.86 15.2 l-4.42 0 c-1.12 0 -1.94 -0.82 -1.94 -1.94 l0 -2.12 c0 -1.12 0.82 -1.94 1.94 -1.94 l4.32 0 c1.12 0 1.94 0.82 1.94 1.94 l0 1.28 c0 0.08 -0.06 0.14 -0.14 0.14 l-1.1 0 c-0.06 0 -0.12 -0.06 -0.12 -0.14 l0 -1.46 c0 -0.26 -0.22 -0.48 -0.48 -0.48 l-4.52 0 c-0.26 0 -0.48 0.22 -0.48 0.48 l0 2.48 c0 0.26 0.22 0.46 0.48 0.46 l4.44 0.02 c1.12 0 1.92 0.8 1.92 1.92 l0 2.22 c0 1.12 -0.82 1.94 -1.94 1.94 l-4.32 0 c-1.12 0 -1.94 -0.82 -1.94 -1.94 l0 -1.28 c-0.02 -0.08 0.06 -0.14 0.14 -0.14 l1.1 0 c0.06 0 0.12 0.06 0.12 0.14 l0 1.46 c0 0.26 0.22 0.48 0.48 0.48 l4.52 0 c0.26 0 0.48 -0.22 0.48 -0.48 l0 -2.56 c0 -0.28 -0.22 -0.48 -0.48 -0.48 z M119.19999999999999 9.2 c0.08 0 0.14 0.06 0.14 0.14 l0 0.92 c0 0.08 -0.06 0.14 -0.14 0.14 l-2.66 0 c-0.08 0 -0.12 0.06 -0.12 0.12 l0 9.36 c0 0.06 -0.06 0.12 -0.14 0.12 l-1 0 c-0.08 0 -0.14 -0.06 -0.14 -0.12 l0 -9.36 c0 -0.06 -0.04 -0.12 -0.12 -0.12 l-2.66 0 c-0.08 0 -0.14 -0.06 -0.14 -0.14 l0 -0.92 c0 -0.08 0.06 -0.14 0.14 -0.14 l2.66 0 c0.08 0 0.12 -0.04 0.12 -0.12 l0 -3.96 c0 -0.06 0.06 -0.12 0.14 -0.12 l1 0 c0.08 0 0.14 0.06 0.14 0.12 l0 3.96 c0 0.08 0.04 0.12 0.12 0.12 l2.66 0 z M129.26 13.86 c0 1.12 -0.82 1.94 -1.94 1.94 l-4.78 0 c-0.06 0 -0.12 0.06 -0.12 0.14 l0 2.3 c0 0.26 0.22 0.48 0.48 0.48 l5.84 0 c0.08 0 0.14 0.06 0.14 0.12 l0 1.04 c0 0.06 -0.06 0.12 -0.14 0.12 l-5.74 0 c-1.12 0 -1.94 -0.82 -1.94 -1.94 l0 -6.92 c0 -1.12 0.82 -1.94 1.94 -1.94 l4.32 0 c1.12 0 1.94 0.82 1.94 1.94 l0 2.72 z M122.41999999999999 10.92 l0 3.52 c0 0.06 0.06 0.12 0.12 0.12 l4.88 0 c0.26 0 0.48 -0.2 0.48 -0.46 l0 -3.18 c0 -0.26 -0.22 -0.48 -0.48 -0.48 l-4.52 0 c-0.26 0 -0.48 0.22 -0.48 0.48 z M144.05999999999997 9.2 c1.46 0 2.1 0.62 2.1 2.1 l0 8.58 c0 0.06 -0.06 0.12 -0.14 0.12 l-1.12 0 c-0.06 0 -0.12 -0.06 -0.12 -0.12 l0 -8.96 c0 -0.26 -0.22 -0.48 -0.48 -0.48 l-3.68 0 c-0.62 0 -1.04 0.34 -1.04 1.06 c0.02 0.08 0.02 7.38 0.02 8.38 c0 0.06 -0.06 0.12 -0.14 0.12 l-1.12 0 c-0.06 0 -0.12 -0.06 -0.12 -0.12 l0 -8.38 c0 -0.64 -0.44 -1.06 -1.04 -1.06 l-4.14 0 l0 9.44 c0 0.06 -0.06 0.12 -0.14 0.12 l-1.12 0 c-0.06 0 -0.12 -0.06 -0.12 -0.12 l0 -10.56 c0 -0.06 0.06 -0.12 0.12 -0.12 l5.58 0 c1 0 1.52 0.38 1.74 1.02 l0.04 0 c0.22 -0.64 0.78 -1.02 1.66 -1.02 l3.26 0 z M155.11999999999998 15.2 l-4.42 0 c-1.12 0 -1.94 -0.82 -1.94 -1.94 l0 -2.12 c0 -1.12 0.82 -1.94 1.94 -1.94 l4.32 0 c1.12 0 1.94 0.82 1.94 1.94 l0 1.28 c0 0.08 -0.06 0.14 -0.14 0.14 l-1.1 0 c-0.06 0 -0.12 -0.06 -0.12 -0.14 l0 -1.46 c0 -0.26 -0.22 -0.48 -0.48 -0.48 l-4.52 0 c-0.26 0 -0.48 0.22 -0.48 0.48 l0 2.48 c0 0.26 0.22 0.46 0.48 0.46 l4.44 0.02 c1.12 0 1.92 0.8 1.92 1.92 l0 2.22 c0 1.12 -0.82 1.94 -1.94 1.94 l-4.32 0 c-1.12 0 -1.94 -0.82 -1.94 -1.94 l0 -1.28 c-0.02 -0.08 0.06 -0.14 0.14 -0.14 l1.1 0 c0.06 0 0.12 0.06 0.12 0.14 l0 1.46 c0 0.26 0.22 0.48 0.48 0.48 l4.52 0 c0.26 0 0.48 -0.22 0.48 -0.48 l0 -2.56 c0 -0.28 -0.22 -0.48 -0.48 -0.48 z"
       id="path9" />
  </g>
</svg>
